<?xml version="1.0" standalone="yes"?>
<svg xmlns="http://www.w3.org/2000/svg" width="550" height="550" viewBox="0 0 612 612">
<path style="fill:#ffffff; stroke:none;" d="M266 186L280 186C283.432 186.006 286.969 185.806 289.981 187.742C297.147 192.348 296.47 200.741 288.995 204.543C285.053 206.549 280.28 206 276 206L253 206C247.105 206.002 240.286 206.025 238.438 213.004C234.056 229.544 255.578 224.311 263.999 226.419C270.272 227.989 274.655 235.076 270.421 240.892C267.293 245.189 261.917 245.936 257 245.996C248.669 246.098 240.331 245.999 232 246C225.553 246 218.104 246.027 216.651 254.004C213.739 269.991 236.645 264.698 244.999 266.228C250.158 267.173 254.844 272.609 252.948 277.996C250.862 283.921 245.532 284.97 240 284.999C229 285.057 218 284.948 207 285.001C201.449 285.028 193.493 285.129 190.858 291.094C188.482 296.473 191.104 303.407 197.015 304.656C215.648 308.594 236.469 301.027 255 305.533C265.838 308.168 268.035 321.835 256 324.606C251.026 325.751 245.956 324.535 241 326C244.975 337.675 252.398 354.044 262 362C269.731 348.114 279.799 336.523 280.91 320C281.738 307.7 274.393 296.23 277.34 284C281.31 267.519 293.589 251.759 301.694 237C307.199 226.976 312.545 216.693 318.619 207.001C320.333 204.265 323.826 198.806 327.678 201.662C332.482 205.224 326.599 213.411 324.576 217C316.515 231.299 308.649 245.709 300.576 260C298.674 263.367 289.436 276.349 297.109 278.248C302.379 279.553 305.871 270.49 307.769 267C315.594 252.613 323.459 238.224 331.579 224C333.716 220.256 339.625 206.169 345.638 212.337C349.43 216.227 343.668 223.354 341.691 227C334.062 241.073 326.291 255.162 318.255 269C316.415 272.169 307.251 284.705 313.318 287.377C319.077 289.914 322.772 280.673 324.769 277C332.605 262.592 340.612 248.262 348.719 234C350.886 230.188 356.453 215.969 362.667 221.528C367.209 225.59 360.854 233.166 358.769 237C351.106 251.093 343.026 264.942 335.306 279C333.329 282.599 324.809 293.508 330.321 296.953C336.175 300.612 340.423 289.542 342.424 286C350.677 271.394 358.685 256.646 366.862 242C368.646 238.804 376.54 223.965 380.929 232.153C383.194 236.379 378.422 242.502 376.421 246C370.157 256.952 363.983 267.968 357.861 279C351.147 291.098 345.252 307.602 334.675 316.841C325.482 324.872 313.058 325.565 303.004 332.09C292.302 339.036 287.24 349.998 281.753 361C279.444 365.63 273.951 373.688 274.727 379C275.379 383.465 280.191 387.815 283.075 391C290.352 399.038 297.331 407.328 305 415C312.155 422.158 320.052 433.385 328.996 438.199C334.288 441.047 337.483 433.597 339.783 430C347.008 418.701 354.122 407.326 361.305 396C368.297 384.975 371.428 373.059 369.711 360C368.628 351.765 365.071 344.528 366.3 336C367.269 329.279 370.748 323.805 374.011 318C381.607 304.484 391.024 291.928 402 281.001C412.892 270.157 433.377 253.851 447.532 269.185C458.787 281.379 453.913 302.941 449.33 317C443.961 333.472 436.998 354.703 423.91 366.699C415.071 374.802 402.82 375.115 393 381.545C381.466 389.097 376.055 401.028 370.258 413C365.254 423.336 360.385 433.723 355.247 444C353.511 447.473 349.523 452.83 350.708 456.91C352.293 462.367 360.863 467.386 365 471C383.988 458.44 400.948 440.052 417 424C455.724 385.276 502.84 334.048 500.957 275C500.518 261.242 498.32 247.092 493.999 234C490.133 222.287 484.924 211.272 478.065 201C442.38 147.56 373.106 127.557 314 151.2C300.964 156.414 288.675 163.73 278 172.87C273.422 176.79 268.585 180.456 266 186M194.015 206.742C187.074 209.48 185.874 219.964 192.109 224.142C194.735 225.901 197.958 225.959 201 225.996C207.186 226.073 215.145 227.228 220.981 224.852C228.255 221.89 229.03 210.952 221.956 207.179C219.527 205.883 216.667 206.015 214 206.001C208.036 205.969 199.633 204.527 194.015 206.742M142.015 246.742C135.869 249.166 133.823 258.273 138.804 262.867C142.731 266.487 149.303 266.407 153.956 264.297C160.091 261.516 161.201 253.176 156.442 248.573C153.143 245.382 146.147 245.113 142.015 246.742M176.019 246.742C168.629 249.678 168.654 259.976 175.055 263.91C181.095 267.623 193.562 267.038 199.956 264.437C206.616 261.727 207.852 251.999 201.867 247.742C197.063 244.326 181.407 244.601 176.019 246.742M120.001 285.533C111.742 287.551 107.717 300.458 117.044 304.258C121.1 305.91 126.704 305 131 305L159 305C163.552 305 169.546 305.974 173.815 304.106C181.925 300.56 179.609 288.302 171.985 285.943C165.786 284.025 158.41 285 152 285C141.952 285 129.785 283.142 120.001 285.533z"/>
</svg>
